<svg xmlns="http://www.w3.org/2000/svg" xmlns:xlink="http://www.w3.org/1999/xlink" width="44" height="43" viewBox="0 0 44 43"><defs><style>.a{fill:url(#a);}.b,.c{fill:#fff;}.c{opacity:0.996;}</style><radialGradient id="a" cx="0.5" cy="0.5" r="0.5" gradientUnits="objectBoundingBox"><stop offset="0" stop-color="#ff0078"/><stop offset="1" stop-color="#7b023b"/></radialGradient></defs><g transform="translate(10410.732 21465.732)"><g transform="translate(-10410.732 -21465.732)"><ellipse class="a" cx="22" cy="21.5" rx="22" ry="21.5"/><g transform="translate(11.522 9.785)"><path class="b" d="M11.423,23.336a5.343,5.343,0,0,1-.63-.04,10.776,10.776,0,0,1-6.764-3.087A10.938,10.938,0,0,1,3.871,4.74.729.729,0,0,1,4.9,4.729L6.558,6.344A13.923,13.923,0,0,1,17.46,0H17.5a.729.729,0,0,1,.669,1.01,12.321,12.321,0,0,0-.69,7.169l1.657-2.071a.724.724,0,0,1,.569-.273h.357a.729.729,0,0,1,.6.312,10.939,10.939,0,0,1-8.866,17.189h-.114l-.107,0-.067,0-.078.006ZM8.577,15.242A3.4,3.4,0,0,0,7.51,17.925a3.93,3.93,0,0,0,3.42,3.918c.175.014.374.023.6.027a3.958,3.958,0,0,0,3.8-3.909,6.754,6.754,0,0,0-3.354-6.576,5.878,5.878,0,0,1-.5,4.63.731.731,0,0,1-.577.365q-.1.009-.2.009A2.564,2.564,0,0,1,8.577,15.242Zm1.746-6.109a.717.717,0,0,1,.227.036A8.4,8.4,0,0,1,16.781,18a5.418,5.418,0,0,1-.88,2.891A9.488,9.488,0,0,0,19.84,7.563l-2.124,2.654a.724.724,0,0,1-.569.273.746.746,0,0,1-.13-.012.727.727,0,0,1-.563-.491,13.766,13.766,0,0,1-.04-8.422,12.479,12.479,0,0,0-9.062,6.3.728.728,0,0,1-.531.372.688.688,0,0,1-.11.009A.727.727,0,0,1,6.2,8.035L4.423,6.3A9.486,9.486,0,0,0,6.652,20.432a5.318,5.318,0,0,1-.6-2.458,4.812,4.812,0,0,1,2.5-4.5.729.729,0,0,1,1.072.535,1.084,1.084,0,0,0,.78.885,4.344,4.344,0,0,0-.645-4.56.729.729,0,0,1,.559-1.2Z" transform="translate(-0.745 0.001)"/></g></g><path class="c" d="M17.5,35a17.629,17.629,0,0,1-3.527-.356,17.4,17.4,0,0,1-6.258-2.633,17.551,17.551,0,0,1-6.34-7.7,17.412,17.412,0,0,1-1.02-3.285,17.671,17.671,0,0,1,0-7.054A17.4,17.4,0,0,1,2.989,7.716a17.551,17.551,0,0,1,7.7-6.34A17.412,17.412,0,0,1,13.973.356a17.671,17.671,0,0,1,7.054,0,17.4,17.4,0,0,1,6.258,2.633,17.551,17.551,0,0,1,6.34,7.7,17.412,17.412,0,0,1,1.02,3.285,17.671,17.671,0,0,1,0,7.054,17.4,17.4,0,0,1-2.633,6.258,17.551,17.551,0,0,1-7.7,6.34,17.412,17.412,0,0,1-3.285,1.02A17.629,17.629,0,0,1,17.5,35Zm0-33.569a16.188,16.188,0,0,0-3.239.326A15.981,15.981,0,0,0,8.516,4.175a16.116,16.116,0,0,0-5.822,7.07,15.988,15.988,0,0,0-.936,3.016,16.226,16.226,0,0,0,0,6.477,15.981,15.981,0,0,0,2.418,5.746,16.116,16.116,0,0,0,7.07,5.822,15.988,15.988,0,0,0,3.016.936,16.226,16.226,0,0,0,6.477,0,15.981,15.981,0,0,0,5.746-2.418,16.116,16.116,0,0,0,5.822-7.07,15.988,15.988,0,0,0,.936-3.016,16.226,16.226,0,0,0,0-6.477,15.981,15.981,0,0,0-2.418-5.746,16.116,16.116,0,0,0-7.07-5.822,15.988,15.988,0,0,0-3.016-.936A16.188,16.188,0,0,0,17.5,1.431Z" transform="translate(-10405.732 -21461.732)"/></g></svg>