<svg id="Layer_6" height="512" viewBox="0 0 32 32" width="512" xmlns="http://www.w3.org/2000/svg" data-name="Layer 6"><path d="m4.8 25.32a3.2 3.2 0 1 1 3.2-3.19 3.2 3.2 0 0 1 -3.2 3.19zm0-4.26a1.07 1.07 0 1 0 1.07 1.07 1.07 1.07 0 0 0 -1.07-1.07z"/><path d="m8.53 31.19a1.07 1.07 0 0 1 -1.07-1.07c0-.52 0-1.6-2.66-1.6s-2.66 1.08-2.66 1.6a1.07 1.07 0 1 1 -2.13 0c0-1.39.62-3.73 4.8-3.73s4.8 2.34 4.8 3.73a1.07 1.07 0 0 1 -1.08 1.07z"/><path d="m16 25.32a3.2 3.2 0 1 1 3.2-3.2 3.2 3.2 0 0 1 -3.2 3.2zm0-4.26a1.07 1.07 0 1 0 1.07 1.07 1.07 1.07 0 0 0 -1.07-1.07z"/><path d="m19.73 31.19a1.07 1.07 0 0 1 -1.07-1.07c0-.52 0-1.6-2.66-1.6s-2.66 1.08-2.66 1.6a1.07 1.07 0 1 1 -2.13 0c0-1.39.62-3.73 4.8-3.73s4.8 2.34 4.8 3.73a1.07 1.07 0 0 1 -1.08 1.07z"/><path d="m27.2 25.32a3.2 3.2 0 1 1 3.2-3.2 3.2 3.2 0 0 1 -3.2 3.2zm0-4.26a1.07 1.07 0 1 0 1.07 1.07 1.07 1.07 0 0 0 -1.07-1.07z"/><path d="m30.93 31.19a1.07 1.07 0 0 1 -1.07-1.07c0-.52 0-1.6-2.66-1.6s-2.66 1.08-2.66 1.6a1.07 1.07 0 1 1 -2.13 0c0-1.39.62-3.73 4.8-3.73s4.79 2.34 4.79 3.73a1.07 1.07 0 0 1 -1.07 1.07z"/><path d="m27.2 16.8a1.06 1.06 0 0 1 -.53-.14l-3.24-1.85a1.07 1.07 0 1 1 1.06-1.81l2.71 1.55 1.05-.6a3.2 3.2 0 0 0 1.61-2.78v-5a3.2 3.2 0 0 0 -3.2-3.19h-21.32a3.2 3.2 0 0 0 -3.2 3.2v5a3.21 3.21 0 0 0 1.61 2.78l1.05.6 2.71-1.56a1.07 1.07 0 1 1 1.06 1.85l-3.24 1.81a1.07 1.07 0 0 1 -1.06 0l-1.58-.9a5.34 5.34 0 0 1 -2.69-4.63v-5a5.34 5.34 0 0 1 5.34-5.32h21.32a5.34 5.34 0 0 1 5.34 5.33v5a5.34 5.34 0 0 1 -2.68 4.63l-1.58.9a1.06 1.06 0 0 1 -.54.13z"/><path d="m16 16.8a1.06 1.06 0 0 1 -.59-.18l-2.66-1.77a1.07 1.07 0 0 1 1.18-1.77l2.07 1.37 2.07-1.38a1.07 1.07 0 1 1 1.18 1.77l-2.66 1.77a1.06 1.06 0 0 1 -.59.19z"/><path d="m11.74 8.81a1.07 1.07 0 0 1 0-2.13 1.07 1.07 0 0 1 0 2.13z"/><path d="m16 8.81a1.07 1.07 0 1 1 0-2.13 1.07 1.07 0 0 1 0 2.13z"/><path d="m20.27 8.81a1.07 1.07 0 1 1 0-2.13 1.07 1.07 0 0 1 0 2.13z"/></svg>