<svg id="svg10654" height="512" viewBox="0 0 6.3499999 6.3500002" width="512" xmlns="http://www.w3.org/2000/svg" xmlns:svg="http://www.w3.org/2000/svg"><g id="layer1" transform="translate(0 -290.65)"><path id="path9381" d="m2.8693327 292.03766-1.8536336 1.58801c-.12378695.10564-.12378695.29692 0 .40256l1.8536336 1.58802c.268373.2291.6120212-.17346.3436482-.40256l-1.6174723-1.387 1.6174723-1.38647c.283613-.2376-.019903-.64103-.3436482-.40256zm2.2773804-.0641c-.059776.002-.1169747.025-.1622639.0641l-1.8515666 1.58801c-.1237869.10564-.1237869.29692 0 .40256l1.8515666 1.58802c.2683729.23048.6140884-.17208.3457154-.40256l-1.6190227-1.387 1.6190227-1.38647c.1936557-.1632.069492-.47902-.1834515-.46664z" font-variant-ligatures="normal" font-variant-position="normal" font-variant-caps="normal" font-variant-numeric="normal" font-variant-alternates="normal" font-feature-settings="normal" text-indent="0" text-align="start" text-decoration-line="none" text-decoration-style="solid" text-decoration-color="rgb(0,0,0)" text-transform="none" text-orientation="mixed" white-space="normal" shape-padding="0" isolation="auto" mix-blend-mode="normal" solid-color="rgb(0,0,0)" solid-opacity="1" vector-effect="none"/></g></svg>