<svg xmlns="http://www.w3.org/2000/svg" viewBox="0 0 32 32"><title>reddit, forum, network, social</title><g id="reddit_forum_network_social" data-name="reddit, forum, network, social"><path d="M19.3057,21.28a4.8954,4.8954,0,0,1-6.6065.0049,1,1,0,0,0-1.3984,1.43A6.69,6.69,0,0,0,15.99,24.5723,6.7632,6.7632,0,0,0,20.6943,22.72,1,1,0,0,0,19.3057,21.28Z"/><path d="M13.4955,17.4955A1.4955,1.4955,0,1,0,12,18.991,1.4955,1.4955,0,0,0,13.4955,17.4955Z"/><path d="M20,16a1.4955,1.4955,0,1,0,1.4955,1.4955A1.4956,1.4956,0,0,0,20,16Z"/><path d="M29.03,16a3.5042,3.5042,0,0,0-3.5-3.5,3.4678,3.4678,0,0,0-1.7838.505,14.6953,14.6953,0,0,0-6.4055-1.9484l1.3275-4.2661,3.4493.9958a2.9933,2.9933,0,1,0,.1628-2.0349L18.2817,4.5972a1.0007,1.0007,0,0,0-1.2324.664L15.2559,11.025A15.01,15.01,0,0,0,8.2731,12.99a3.4893,3.4893,0,0,0-4.1869,5.5288A6.12,6.12,0,0,0,4,19.5C4,24.1865,9.3833,28,16,28s12-3.8135,12-8.5a6.2219,6.2219,0,0,0-.08-.9518A3.46,3.46,0,0,0,29.03,16ZM25,6a1,1,0,1,1-1,1A1.0013,1.0013,0,0,1,25,6ZM16,26c-5.5142,0-10-2.916-10-6.5a3.9218,3.9218,0,0,1,.1509-1.1025.9134.9134,0,0,0-.4434-1.1329A1.4622,1.4622,0,0,1,5,16a1.4983,1.4983,0,0,1,1.2656-1.4763c-.0733.0721-.1565.1394-.2265.2131a1,1,0,1,0,1.45,1.377,8.0461,8.0461,0,0,1,1.3022-1.0962A12.9391,12.9391,0,0,1,15.9977,13l.0028,0,.0024,0a12.8371,12.8371,0,0,1,7.2242,2.036,9.6069,9.6069,0,0,1,1.3144,1.1123,1.0706,1.0706,0,0,0,1.4136.0435,1.002,1.002,0,0,0,.0434-1.4136c-.0843-.09-.1837-.1713-.2729-.2586A1.4972,1.4972,0,0,1,27.03,16a1.5192,1.5192,0,0,1-.7261,1.2832,1.1214,1.1214,0,0,0-.4492,1.1191A4.13,4.13,0,0,1,26,19.5C26,23.084,21.5142,26,16,26Z"/></g></svg>